<svg width="1541" height="1541" xmlns="http://www.w3.org/2000/svg" xmlns:xlink="http://www.w3.org/1999/xlink" overflow="hidden"><defs><clipPath id="clip0"><rect x="1691" y="646" width="1541" height="1541"/></clipPath></defs><g clip-path="url(#clip0)" transform="translate(-1691 -646)"><path d="M2461.67 1021.41C2243.03 1021.41 2066.67 1197.81 2066.67 1416.5 2066.67 1635.19 2243.03 1811.59 2461.67 1811.59 2680.32 1811.59 2856.68 1635.19 2856.68 1416.5 2856.68 1197.81 2680.32 1021.41 2461.67 1021.41ZM2461.67 1673.36C2320.38 1673.36 2204.87 1558.17 2204.87 1416.5 2204.87 1274.83 2320.03 1159.64 2461.67 1159.64 2603.31 1159.64 2718.48 1274.83 2718.48 1416.5 2718.48 1558.17 2602.97 1673.36 2461.67 1673.36ZM2964.97 1005.25C2964.97 1056.48 2923.71 1097.4 2872.83 1097.4 2821.61 1097.4 2780.7 1056.14 2780.7 1005.25 2780.7 954.355 2821.95 913.092 2872.83 913.092 2923.71 913.092 2964.97 954.355 2964.97 1005.25ZM3226.59 1098.77C3220.74 975.33 3192.55 865.983 3102.14 775.892 3012.07 685.802 2902.74 657.605 2779.33 651.416 2652.13 644.194 2270.87 644.194 2143.67 651.416 2020.6 657.261 1911.28 685.457 1820.86 775.548 1730.45 865.639 1702.6 974.986 1696.41 1098.43 1689.19 1225.66 1689.19 1607 1696.41 1734.22 1702.26 1857.67 1730.45 1967.02 1820.86 2057.11 1911.28 2147.2 2020.26 2175.4 2143.67 2181.58 2270.87 2188.81 2652.13 2188.81 2779.33 2181.58 2902.74 2175.74 3012.07 2147.54 3102.14 2057.11 3192.21 1967.02 3220.4 1857.67 3226.59 1734.22 3233.8 1607 3233.8 1226 3226.59 1098.77ZM3062.26 1870.74C3035.44 1938.13 2983.53 1990.06 2915.81 2017.22 2814.39 2057.45 2573.74 2048.17 2461.67 2048.17 2349.6 2048.17 2108.61 2057.11 2007.54 2017.22 1940.16 1990.4 1888.24 1938.48 1861.09 1870.74 1820.86 1769.3 1830.15 1528.6 1830.15 1416.5 1830.15 1304.4 1821.21 1063.36 1861.09 962.263 1887.9 894.867 1939.81 842.944 2007.54 815.78 2108.95 775.548 2349.6 784.833 2461.67 784.833 2573.74 784.833 2814.74 775.892 2915.81 815.78 2983.19 842.601 3035.1 894.523 3062.26 962.263 3102.48 1063.7 3093.2 1304.4 3093.2 1416.5 3093.2 1528.6 3102.48 1769.64 3062.26 1870.74Z" fill="#FFFFFF" fill-rule="evenodd"/></g></svg>