<svg width="1760" height="1427" xmlns="http://www.w3.org/2000/svg" xmlns:xlink="http://www.w3.org/1999/xlink" overflow="hidden"><defs><clipPath id="clip0"><rect x="101" y="131" width="1760" height="1427"/></clipPath></defs><g clip-path="url(#clip0)" transform="translate(-101 -131)"><path d="M1680.01 484.102C1681.12 499.743 1681.12 515.388 1681.12 531.047 1681.12 1008.07 1318.15 1558 654.748 1558 450.401 1558 260.49 1498.78 101 1395.98 130.035 1399.33 157.956 1400.45 188.101 1400.45 356.735 1400.45 511.928 1343.46 635.98 1246.27 477.418 1242.91 344.532 1139 298.747 995.993 321.083 999.343 343.398 1001.58 366.875 1001.58 399.257 1001.58 431.633 997.107 461.778 989.29 296.513 955.767 172.565 810.519 172.565 638.145L172.565 633.677C220.584 660.493 276.405 677.252 335.595 679.488 238.457 614.693 174.799 504.053 174.799 378.934 174.799 311.903 192.662 250.444 223.918 196.827 401.454 415.802 668.36 558.977 967.748 574.454 962.166 547.638 958.814 519.701 958.814 491.775 958.814 292.884 1119.61 131 1319.39 131 1423.23 131 1517.03 174.575 1582.92 244.976 1664.46 229.334 1742.62 199.166 1811.85 157.826 1785.04 241.64 1728.08 312.007 1653.28 356.716 1725.88 348.899 1796.21 328.783 1861 300.863 1811.88 372.365 1750.46 436.059 1680.1 487.441Z" fill="#FFFFFF" fill-rule="evenodd"/></g></svg>